<svg xmlns="http://www.w3.org/2000/svg" viewBox="0 0 64 64" width="64" height="64" role="img" aria-label="WRR">
  <rect width="64" height="64" fill="#0B0B0C"/>
  <rect x="5" y="5" width="54" height="54" fill="none" stroke="#F2F0EB" stroke-width="2"/>
  <path transform="translate(9,50) scale(0.042,-0.042)" fill="#F2F0EB" d="M378 0 20 640H302L604 45L509 43L792 640H1094L1377 43L1282 45L1584 640H1862L1508 0H1170L894 539H992L716 0Z"/>
  <path transform="translate(41,26) scale(0.014,-0.014)" fill="#FFAF3D" d="M77 0V647H516Q591 647 646.5 626.5Q702 606 733.0 562.5Q764 519 764 451Q764 405 748.0 373.0Q732 341 703.5 321.0Q675 301 638.0 290.5Q601 280 559 277L545 285Q615 284 660.0 273.5Q705 263 727.5 235.5Q750 208 750 154V0H617V145Q617 182 604.0 202.5Q591 223 557.5 231.0Q524 239 461 239H210V0ZM210 343H516Q572 343 601.5 370.0Q631 397 631 443Q631 487 601.5 510.0Q572 533 516 533H210Z"/>
  <path transform="translate(51.064,26) scale(0.014,-0.014)" fill="#FFAF3D" d="M77 0V647H516Q591 647 646.5 626.5Q702 606 733.0 562.5Q764 519 764 451Q764 405 748.0 373.0Q732 341 703.5 321.0Q675 301 638.0 290.5Q601 280 559 277L545 285Q615 284 660.0 273.5Q705 263 727.5 235.5Q750 208 750 154V0H617V145Q617 182 604.0 202.5Q591 223 557.5 231.0Q524 239 461 239H210V0ZM210 343H516Q572 343 601.5 370.0Q631 397 631 443Q631 487 601.5 510.0Q572 533 516 533H210Z"/>
</svg>
